<?xml version="1.0" encoding="utf-8"?>
<!-- Generator: Adobe Illustrator 25.1.0, SVG Export Plug-In . SVG Version: 6.00 Build 0)  -->
<svg version="1.1" id="Layer_1" xmlns="http://www.w3.org/2000/svg" xmlns:xlink="http://www.w3.org/1999/xlink" x="0px" y="0px"
	 viewBox="0 0 3000 3000" style="enable-background:new 0 0 3000 3000;" xml:space="preserve">
<style type="text/css">
	.st0{fill:#FC9E17;}
	.st1{fill:#F27E0A;}
	.st2{fill:#FFCE00;}
	.st3{opacity:0.75;}
	.st4{fill:#FFFFFF;}
	.st5{fill:#E88E18;}
	.st6{fill:#FF97A6;}
	.st7{fill:#07448C;}
	.st8{fill:#03336D;}
	.st9{fill:#3E2575;}
	.st10{opacity:0.1;fill:#1A2326;}
	.st11{fill:#D3DCE2;}
	.st12{opacity:0.55;fill:#D0876A;}
	.st13{fill:#D0876A;}
	.st14{opacity:0.5;fill:#312C58;}
	.st15{fill:#35366A;}
	.st16{opacity:0.2;fill:#FFFFFF;}
</style>
<g>
	<g>
		<g>
			<path class="st0" d="M1284.81,523.97L976.77,479.2L839.01,200.05c-18.34-37.15-71.34-37.15-89.67,0L611.58,479.2l-308.05,44.77
				c-41.01,5.96-57.39,56.35-27.71,85.28l222.9,217.28l-52.61,306.81c-7.02,40.85,35.85,71.99,72.55,52.7l275.51-144.84
				l275.53,144.84c36.69,19.29,79.55-11.85,72.55-52.7l-52.62-306.81l222.91-217.28C1342.2,580.32,1325.83,529.92,1284.81,523.97z"
				/>
			<path class="st1" d="M599.52,827.17c1.02-29.41,1.52-62.91-15.23-87.91c-7.68-11.46-19.11-20.96-30.74-28.83
				c-8.4-5.7-17.09-11.06-25.61-16.6c-9.52-6.17-19.31-11.94-29.32-17.28c-19.38-10.31-39.65-19.1-60.76-25.23
				c-7.16-2.08-14.1-4.73-21.34-6.6c-7.18-1.83-14.44-3.32-21.73-4.62c-32.92-5.89-66.36-8.43-99.12-15.25
				c-1.63-0.34-3.29-0.69-4.95-1.06l208,202.74l-52.61,306.81c-4.45,25.91,11.19,47.91,32.58,55.6c3.66-6.43,7.33-12.87,10.93-19.35
				c38.6-69.39,72.75-141.7,92.21-218.99C592.01,910.18,598.05,868.84,599.52,827.17z"/>
			<path class="st2" d="M895.57,494.15c4.3,13.06,9.81,26.8,19.21,37.08c8.73,9.5,21.67,13.9,33.95,16.63
				c30.57,6.8,62.92,4.05,93.91,2.34c38.67-2.11,77.5-1.12,116.23-1.3c53.75-0.28,107.49-0.87,161.23-1.87
				c-7.26-11.79-19.41-20.76-35.28-23.06L976.77,479.2L839.01,200.05c-8.09-16.38-22.93-25.53-38.55-27.46
				C810.84,254.05,886.07,465.35,895.57,494.15z"/>
		</g>
		<g class="st3">
			<path class="st4" d="M818.67,677.88c20.57,0,39.15,4.78,55.72,14.33c16.57,9.55,29.47,23.06,38.7,40.54
				c9.22,17.47,13.84,37.64,13.84,60.49c0,40.01-12.05,70.71-36.13,92.09c-24.09,21.39-60.54,32.08-109.36,32.08
				c-41.8,0-75.92-6.44-102.37-19.35v-79.35c14.21,6.53,30.25,11.92,48.13,16.16c17.87,4.25,33.27,6.37,46.17,6.37
				c17.96,0,31.75-3.79,41.39-11.39c9.64-7.59,14.46-18.82,14.46-33.68c0-13.72-4.9-24.41-14.7-32.09
				c-9.8-7.67-24.66-11.51-44.57-11.51c-15.19,0-31.6,2.85-49.24,8.57l-35.51-17.63l13.47-189.09h204.26v80.58H780.95l-4.41,47.27
				c12.74-2.45,21.81-3.79,27.19-4.04C809.12,678,814.1,677.88,818.67,677.88z"/>
		</g>
	</g>
	<g>
		<g>
			<path class="st0" d="M2346.58,2475.05l-132.22-19.21l-59.13-119.82c-7.87-15.94-30.62-15.94-38.49,0l-59.13,119.82l-132.22,19.21
				c-17.6,2.56-24.63,24.19-11.9,36.6l95.68,93.26l-22.58,131.69c-3.01,17.53,15.39,30.9,31.14,22.62l118.26-62.17l118.26,62.17
				c15.75,8.28,34.15-5.09,31.14-22.62l-22.58-131.69l95.68-93.26C2371.21,2499.24,2364.18,2477.61,2346.58,2475.05z"/>
			<path class="st1" d="M2052.43,2605.2c0.44-12.62,0.65-27-6.54-37.73c-3.3-4.92-8.2-8.99-13.19-12.37
				c-3.61-2.45-7.34-4.75-10.99-7.12c-4.09-2.65-8.29-5.13-12.58-7.42c-8.32-4.43-17.02-8.2-26.08-10.83
				c-3.07-0.89-6.05-2.03-9.16-2.83c-3.08-0.79-6.2-1.42-9.33-1.98c-14.13-2.53-28.48-3.62-42.55-6.55c-0.7-0.15-1.41-0.3-2.13-0.45
				l89.28,87.02l-22.58,131.69c-1.91,11.12,4.8,20.56,13.99,23.87c1.57-2.76,3.15-5.52,4.69-8.31c16.57-29.78,31.23-60.82,39.58-94
				C2049.21,2640.82,2051.8,2623.08,2052.43,2605.2z"/>
			<path class="st2" d="M2179.5,2462.25c1.85,5.61,4.21,11.5,8.25,15.92c3.75,4.08,9.3,5.97,14.57,7.14
				c13.12,2.92,27.01,1.74,40.31,1c16.6-0.91,33.27-0.48,49.89-0.56c23.07-0.12,46.14-0.37,69.2-0.8c-3.11-5.06-8.33-8.91-15.14-9.9
				l-132.22-19.21l-59.13-119.82c-3.47-7.03-9.84-10.96-16.55-11.79C2143.14,2359.19,2175.43,2449.89,2179.5,2462.25z"/>
		</g>
		<g>
			<path class="st0" d="M2455.94,2383.31l-62.72-52.28l7.51-81.31c1-10.82-10.85-18.09-20.05-12.31l-69.1,43.5l-75.01-32.26
				c-9.99-4.3-20.56,4.72-17.9,15.26l20.01,79.16l-53.86,61.37c-7.17,8.17-1.86,21.01,8.99,21.74l81.47,5.43l41.72,70.19
				c5.56,9.35,19.41,8.27,23.45-1.83l30.34-75.81l79.65-17.99C2461.04,2403.78,2464.29,2390.27,2455.94,2383.31z"/>
			<path class="st1" d="M2261.14,2357.05c4.26-6.43,8.97-13.85,8.66-21.74c-0.14-3.62-1.4-7.31-2.92-10.66
				c-1.1-2.43-2.3-4.82-3.45-7.23c-1.28-2.69-2.68-5.32-4.18-7.89c-2.92-4.97-6.24-9.71-10.12-13.98c-1.31-1.45-2.5-2.99-3.86-4.4
				c-1.35-1.39-2.77-2.72-4.22-4.01c-6.55-5.83-13.68-10.99-20.07-17.01c-0.32-0.3-0.64-0.61-0.96-0.92l18.68,73.86l-53.86,61.37
				c-4.55,5.18-4.07,12.25-0.35,16.9c1.7-0.94,3.41-1.87,5.1-2.83c18.15-10.22,35.71-21.69,50.66-36.3
				C2248.07,2374.58,2255.09,2366.17,2261.14,2357.05z"/>
			<path class="st2" d="M2373.02,2323.23c-0.83,3.51-1.49,7.34-0.79,10.93c0.65,3.32,2.94,6.08,5.31,8.38
				c5.9,5.71,13.51,9.54,20.67,13.41c8.93,4.83,17.48,10.38,26.16,15.66c12.05,7.31,24.15,14.55,36.3,21.71c0-3.63-1.49-7.3-4.72-10
				l-62.72-52.28l7.51-81.31c0.44-4.77-1.62-8.85-4.85-11.43C2387.03,2257.93,2374.85,2315.49,2373.02,2323.23z"/>
		</g>
		<g>
			<path class="st5" d="M2459.18,2372.18l-127.4,40.26l-105.39-82.13c-14.03-10.93-34.51-1.02-34.65,16.76l-1.07,133.61
				l-110.67,74.86c-14.73,9.96-11.65,32.5,5.23,38.13l126.73,42.31l37,128.39c4.92,17.09,27.31,21.12,37.88,6.81l79.4-107.45
				l133.54,4.49c17.78,0.6,28.53-19.45,18.19-33.92l-77.66-108.73l45.54-125.61C2491.89,2383.23,2476.14,2366.82,2459.18,2372.18z"
				/>
			<path class="st1" d="M2251.03,2617.39c-5.1-11.55-11.17-24.59-22.31-31.12c-5.11-2.99-11.3-4.53-17.27-5.4
				c-4.31-0.63-8.67-1.08-13-1.63c-4.83-0.6-9.69-1.01-14.56-1.2c-9.42-0.36-18.89,0.03-28.19,1.6c-3.15,0.53-6.33,0.81-9.48,1.44
				c-3.11,0.63-6.2,1.42-9.26,2.27c-13.82,3.88-27.22,9.14-41.15,12.63c-0.69,0.17-1.4,0.35-2.11,0.52l118.26,39.48l37,128.39
				c3.12,10.85,13.27,16.42,22.98,15.4c0.21-3.17,0.43-6.34,0.61-9.52c1.95-34.02,1.64-68.35-5.29-101.85
				C2263.63,2650.87,2258.24,2633.77,2251.03,2617.39z"/>
			<path class="st2" d="M2303.2,2433.39c4.1,4.24,8.8,8.52,14.35,10.74c5.15,2.04,10.97,1.32,16.23,0.08
				c13.08-3.09,25.07-10.19,36.73-16.64c14.55-8.04,29.74-14.91,44.67-22.22c20.72-10.15,41.37-20.42,61.95-30.85
				c-5.01-3.2-11.38-4.4-17.94-2.32l-127.4,40.26l-105.39-82.13c-6.19-4.82-13.63-5.58-20.03-3.41
				C2225.59,2356.44,2294.15,2424.04,2303.2,2433.39z"/>
		</g>
		<g>
			<path class="st0" d="M2490.02,2498.89l-83.31,33.22l-86.59-14.34c-10.36-1.72-23.22,4.36-22,10.5l10.86,54.63l-87.56,57.78
				c-12.89,8.5-10.67,22.22,4.49,22.96l123.26,6.05l74.7,105.63c12.77,18.07,43.15,17.6,49.85-1.08l40.95-114.17l144.99-23.69
				c19.71-3.22,16.75-19.21-3.88-26.6l-129.11-46.24l-8.53-59.09C2517.16,2497.79,2500.66,2494.65,2490.02,2498.89z"/>
			<path class="st1" d="M2383.25,2649.55c-7.43-6.67-15.81-13.88-27.31-15.94c-5.2-0.93-11.09-0.78-16.64-0.26
				c-4,0.37-8.01,0.86-12,1.29c-4.44,0.48-8.87,1.08-13.27,1.81c-8.5,1.42-16.96,3.31-25.16,5.91c-2.79,0.88-5.62,1.61-8.4,2.55
				c-2.75,0.94-5.47,1.97-8.17,3.04c-12.24,4.87-24.17,10.62-36.76,15.36c-0.63,0.24-1.27,0.48-1.92,0.71l115.54,5.67l74.7,105.63
				c8.01,11.33,23.11,15.38,34.99,11.98c-1.15-3.65-2.27-7.27-3.44-10.84c-11.59-35.71-24.47-67.15-42.58-93.23
				C2404.12,2670.67,2394.23,2659.41,2383.25,2649.55z"/>
			<path class="st2" d="M2389.36,2544.7c3.94,1.11,8.38,2.15,13.1,2.22c4.4,0.05,8.74-1.14,12.53-2.47
				c9.39-3.28,16.91-7.99,24.24-12.32c9-5.32,18.65-10.21,27.85-15.16c12.54-6.75,24.74-13.39,36.6-19.93
				c-4.58-0.33-9.52,0.2-13.65,1.85l-83.31,33.22l-86.59-14.34c-4.6-0.76-9.64,0-13.73,1.59
				C2322.17,2526.86,2380.82,2542.3,2389.36,2544.7z"/>
		</g>
		<g>
			<g>
				<path class="st6" d="M1094.05,828.97c0.2,0.16,0.86,18.15,0.86,18.15l-1.93,17.74c0,0-45.13-7.57-44.84-5.27
					c0.31,2.48-5.36,11.46-13.95,18.84c-8.58,7.55-40.08-28.08-40.08-28.08s-36.78,13.6-40.47-2.84
					c-3.51-16.45,45.43-17.24,71.93-23.82C1050.32,817.51,1091.37,827.69,1094.05,828.97z"/>
				<path class="st7" d="M1763.58,576.14c-77.4,66.63-374.53,202.24-374.53,202.24l-313.81,37.22c0,0,4.66,26.37-7.07,60.16
					c-11.73,33.78,222.5,76.38,373.57,38.61c151.07-37.78,428.11,9.15,428.11,9.15S1822.08,525.79,1763.58,576.14z"/>
			</g>
			<g>
				<g>
					<g>
						<polygon class="st6" points="1693.23,2709.18 1701.64,2742.37 1750.48,2741.66 1741.49,2705.85 						"/>
						<path class="st8" d="M1750.57,2731.97c0,0-13.34-1.55-23.05,4.28c-9.7,5.82-26.34-2.67-28.52-3.48
							c-2.18-0.81-11.97,1.27-14.67,19.41c-2.7,18.14-78.04,17.73-95.8,27.78c-17.76,10.04,115.01,33.67,185.36,15.09
							C1783.07,2757.76,1750.57,2731.97,1750.57,2731.97z"/>
					</g>
					<path class="st9" d="M1619,1232.2c0,0-158.36,438.08-99.94,769.56c58.43,331.47,165.83,718.35,165.83,718.35l67.46-5.14
						c0,0,124.95-1167.9,90.69-1351.13C1808.77,1180.6,1619,1232.2,1619,1232.2z"/>
				</g>
				<g>
					<g>
						<polygon class="st6" points="1935.41,2730.25 1945.22,2763.05 1993.98,2760.26 1983.48,2724.87 						"/>
						<path class="st8" d="M1993.65,2750.58c0,0-13.39-0.98-22.84,5.25c-9.45,6.23-26.43-1.54-28.65-2.26
							c-2.21-0.71-11.9,1.78-13.83,20.02c-1.93,18.24-77.21,21.04-94.53,31.83c-17.32,10.8,116.34,28.75,185.84,7.19
							C2027.23,2774.97,1993.65,2750.58,1993.65,2750.58z"/>
					</g>
					<path class="st7" d="M1702.76,1320.42c0,0-19.04,436.15,53.44,764.84c72.48,328.69,171.34,656.26,171.34,656.26l67.18-8
						c0,0,154.2-1241.51,112.17-1423.11C2064.86,1128.79,1702.76,1320.42,1702.76,1320.42z"/>
					<path class="st10" d="M1719.7,1581.16c46.24,23.01,101.13,27.45,152,27.74c48.09,0.27,96.42-4.04,143.76-12.45
						c2.63-0.47,4.89,0.7,5.76,3.28c2.38,6.97,3.57,14.25,4.01,21.6c2.13,36.36-10.82,73.33-21.65,107.48
						c-5.1,16.05-10.53,32.06-14.52,48.43c-6,24.59-9.5,50-14.21,74.87c-19.94,105.3-40.33,211.04-45.65,318.31
						c-2.53,50.9-1.42,102.04-1.38,152.99c0.04,49.86,0.34,99.71,1.61,149.55c2.27,88.87,7.63,177.88,20.43,265.91l44.87-5.35
						c0,0,154.2-1241.51,112.16-1423.11c-42.03-181.61-404.12,10.02-404.12,10.02s-4.57,104.82-0.7,250.37
						C1707.66,1574.63,1713.56,1578.1,1719.7,1581.16z"/>
				</g>
				<g>
					<path class="st11" d="M1580.47,1276.99c14.64,61.71,40.41,105.34,79.14,116.47c66.7,18.62,426.85,33.49,464.92-87.66
						c16.98-54.1-159.94-706.13-197.57-732.04c-100.95-69.77-176.55-7.7-176.55-7.7C1624.03,675.87,1536.57,1090.63,1580.47,1276.99
						z"/>
					<path class="st10" d="M1990.83,737.55c4.75,23.16,10.66,46.01,15.08,69.29c4.89,25.84,9.57,55.51,0.47,80.98
						c-9.84,27.51-35,37.21-62.6,36.27c-34.02-1.16-65.59-12.78-95.42-28.13c13.12,18.26,23.89,38.12,37.43,56.1
						c15.82,21.01,37.13,37.42,57.39,53.89c20.45,16.63,40.73,33.97,55.3,56.23c15.19,23.23,25.75,50.59,32.31,77.47
						c11.86,48.62,9.33,102.33-19.85,144.63c-21.31,30.88-54.55,44.74-90.34,51.39c-21.28,3.96-42.87,6.15-64.35,8.82
						c-20.19,2.51-40.33,5.29-60.59,7.25c-41.16,3.99-82.59,5.86-123.93,4.42c-20.76-0.72-41.71-2.35-62.57-4.99
						c13.45,21.63,30.15,36.46,50.46,42.29c66.7,18.62,426.85,33.49,464.92-87.66C2136.34,1268.19,2054.49,941.87,1990.83,737.55z"
						/>
					<g>
						<path class="st6" d="M1776.6,584.25l16.56-60.01l48.13-8.69l31.92,55.33c0,0,0.98,38.11-47.74,48.4
							C1776.08,629.7,1777.2,588.75,1776.6,584.25z"/>
						<path class="st12" d="M1792.63,540.45c0,0,23.1,28.45,33.27,15.86c10.17-12.6,30.12-14.64,30.12-14.64l-12.46-22.37
							L1792.63,540.45z"/>
						<g>
							<path class="st9" d="M1911.2,405.28c0-8.82-3.81-16.73-9.85-22.24c0.12-1.07,0.18-2.16,0.18-3.27
								c0-11.37-6.29-21.26-15.58-26.39c-1.24-15.51-14.2-27.72-30.03-27.72c-5.64,0-10.91,1.58-15.43,4.28
								c-5.39-8.16-14.64-13.56-25.16-13.56c-5.1,0-9.89,1.28-14.1,3.51c-5.21-9.02-14.94-15.1-26.1-15.1
								c-5.74,0-11.09,1.64-15.66,4.42c-9.52-4.05-21.52-6.46-38.8-5.66c-22.4,1.03-40.82,40.82-31.87,86.77
								c0,0.02,0.01,0.04,0.01,0.06c-5.2,5.81-8.39,13.46-8.39,21.87c0,13.16,7.76,24.49,18.94,29.73
								c-0.73,2.73-1.16,5.58-1.16,8.54c0,18.15,14.71,32.86,32.86,32.86c2.43,0,4.8-0.28,7.08-0.79c-0.08,0.7-0.12,1.42-0.12,2.14
								c0,10.78,8.74,19.52,19.52,19.52s19.52-8.74,19.52-19.52c0-3.13-0.8-6.04-2.11-8.66l69.47-2.03
								c3.19,6.44,9.81,10.88,17.48,10.88c10.78,0,19.52-8.74,19.52-19.52c0-1.31-0.13-2.58-0.38-3.82
								c9.85-4.96,16.61-15.14,16.61-26.91c0-1.38-0.12-2.72-0.3-4.05C1905.68,425.24,1911.2,415.91,1911.2,405.28z"/>
							<path class="st6" d="M1865.85,450.86c-2.85,18.24,3.45,71.98-45.39,91.65c-48.9,19.76-72.71-75.44-72.97-81.99
								c-0.06-1.98-0.04-3.83,0.22-5.55c3.42-29.53,46.42-25.77,76.41-29.04c1.1-0.12,2.19-0.31,3.21-0.41
								c31.73-4.27,30.78-10.23,30.78-10.23s8.67-10.51,17.01,3.72C1887.42,440.03,1865.85,450.86,1865.85,450.86z"/>
							<path class="st12" d="M1850.82,450.7c0,0-34.56-6.51-56.71-10.73c-22.15-4.21-43.26,13.84-43.26,13.84
								c-0.77,0.38-1.84,0.79-3.13,1.15c-0.52-33.67,63.32-29.55,93.31-32.82C1846.15,432.82,1850.82,450.7,1850.82,450.7z"/>
							<path class="st9" d="M1837.98,413.59c0,0,15.15,61.79,15.97,43.2c0.83-18.58,13.62-40.3,4.53-48.35
								C1854.52,404.94,1837.98,413.59,1837.98,413.59z"/>
						</g>
						<path class="st13" d="M1863.08,418.7c0,0,10,5.29,8.12,10.32c-1.88,5.03-4.09,10.96-4.09,10.96s2.44-7.93,1.16-11.74
							C1866.98,424.42,1860.93,421.12,1863.08,418.7z"/>
						<path class="st14" d="M1731.56,452.02c0,0,9.39-43.54,88.2-36.59C1819.76,415.42,1728.88,373.36,1731.56,452.02z"/>
						<path class="st15" d="M1752.02,463.95c2.37,11,11.65,18.75,21.06,17.21c9.89-1.62,16.13-12.71,13.56-24.67
							c-0.63-2.92-1.74-5.55-3.16-7.85l6.61-1.08c-0.46,2.94-0.42,6.02,0.24,9.11c2.61,12.12,13.69,20.52,25.19,18.64
							c12.14-1.99,20.1-14.49,17.23-27.78c-2.86-13.29-15.26-21.4-27.14-18.21c-6.16,1.65-10.72,6.16-13.36,11.79l-13.58,2.18
							c-4.22-3.46-9.43-5.06-14.55-3.69C1754.91,442.07,1749.64,452.95,1752.02,463.95z M1792.37,456.23
							c-2.35-10.92,3.63-21.86,13.77-24.52c10.6-2.79,21.65,4.47,24.21,16.34c2.55,11.86-4.52,23.03-15.34,24.86
							C1804.68,474.65,1794.72,467.15,1792.37,456.23z M1753.69,463.59c-2.14-9.91,2.62-19.65,10.91-21.83
							c8.64-2.27,17.79,4.48,20.09,15.15c2.3,10.67-3.26,20.59-12.07,22.08C1764.17,480.42,1755.82,473.5,1753.69,463.59z"/>
					</g>
				</g>
			</g>
		</g>
		<g>
			<path class="st0" d="M2092.89,1154.51l-132.22-19.21l-59.13-119.82c-7.87-15.94-30.62-15.94-38.49,0l-59.13,119.82l-132.22,19.21
				c-17.6,2.56-24.63,24.19-11.89,36.6l95.68,93.26l-22.58,131.69c-3.01,17.53,15.39,30.9,31.14,22.62l118.26-62.17l118.26,62.17
				c15.75,8.28,34.15-5.09,31.14-22.62l-22.58-131.69l95.68-93.26C2117.52,1178.7,2110.49,1157.06,2092.89,1154.51z"/>
			<path class="st1" d="M1798.74,1284.65c0.44-12.62,0.65-27-6.54-37.73c-3.3-4.92-8.2-8.99-13.19-12.37
				c-3.61-2.45-7.34-4.75-10.99-7.13c-4.09-2.65-8.29-5.13-12.58-7.42c-8.32-4.43-17.02-8.2-26.08-10.83
				c-3.07-0.89-6.05-2.03-9.16-2.83c-3.08-0.79-6.2-1.42-9.33-1.98c-14.13-2.53-28.48-3.62-42.55-6.55c-0.7-0.15-1.41-0.3-2.13-0.45
				l89.28,87.02l-22.58,131.69c-1.91,11.12,4.8,20.56,13.98,23.87c1.57-2.76,3.15-5.52,4.69-8.31c16.57-29.78,31.23-60.82,39.58-94
				C1795.51,1320.28,1798.11,1302.54,1798.74,1284.65z"/>
			<path class="st2" d="M1925.81,1141.71c1.85,5.61,4.21,11.5,8.25,15.92c3.75,4.08,9.3,5.97,14.57,7.14
				c13.12,2.92,27.01,1.74,40.31,1c16.6-0.91,33.27-0.48,49.89-0.56c23.07-0.12,46.14-0.37,69.2-0.8c-3.12-5.06-8.33-8.91-15.14-9.9
				l-132.22-19.21l-59.13-119.82c-3.47-7.03-9.84-10.96-16.55-11.79C1889.44,1038.65,1921.74,1129.35,1925.81,1141.71z"/>
		</g>
		<g>
			<g>
				<path class="st6" d="M1988.37,1443.4l-0.01-0.01c1.89-2.93,4.06-7.41,6.54-14.36c0,0-0.05,0.04-0.1,0.12
					c1.37-3.41,2.54-7.08,3.5-10.82c1.68-6.45,2.51-11.29,2.92-14.75c-0.01-0.02,0-0.04,0.01-0.04c0.57-5.12,0.21-7.24,0.21-7.24
					s35.96-53.6,37.98-61.88c-1.36-9.39-34.15-20.71-34.15-20.71c-8.14,1.75-32.34,54.09-44.29,59.53
					c-13.94,6.35-51.36,3.06-45.38,13.77c5.99,10.73,30.34,4.97,30.34,4.97s-0.22,0.21-0.59,0.62
					c-2.29,2.46-10.66,11.99-14.66,23.05l-0.01,0.01c-1.09,3.08-1.86,6.28-2.06,9.48c-0.03,0.57-0.06,1.13-0.06,1.69
					c0,1,0.06,2.02,0.2,3.02c0.02,0.16,0.04,0.34,0.07,0.5c0.07,0.5,0.16,1,0.27,1.49l0.02,0.06c0.02,0.01,0.02,0.01,0.02,0.02
					c0.67,1.25,1.86,2.57,3.91,3.79c6.62,3.91,10.18-0.29,10.18-0.29s-0.33,5.52,5.44,7.93c6.13,2.57,7.51-1.74,7.51-1.74
					s1.61,5.95,6.5,7.81c5.16,1.97,6.66-3.07,6.66-3.07s0.52,4.31,6.55,6.67C1981.31,1455.15,1988.37,1443.4,1988.37,1443.4z"/>
				<path class="st16" d="M1960.71,1435.79c0.05,0.2,0.19,0.38,0.47,0.46c3.18,0.87,6.18,1.81,8.5,4.31
					c0.78,0.83,1.67,1.77,2.85,1.9c0.54,0.07,1.05-0.07,1.57-0.14c0.7-0.1,1.33,0.04,2.02,0.25c2.28,0.69,4.47,1.85,6.46,3.17
					c0.91,0.61,1.81,1.28,2.68,2c-2.55,3.1-6.24,6.51-9.38,5.29c-6.03-2.36-6.54-6.68-6.54-6.68s-1.5,5.04-6.66,3.07
					c-4.89-1.86-6.5-7.81-6.5-7.81s-1.38,4.31-7.51,1.73c-5.77-2.41-5.44-7.93-5.44-7.93s-3.56,4.21-10.18,0.3
					c-2.05-1.22-3.24-2.54-3.91-3.79c-0.01-0.01-0.01-0.01-0.02-0.02l-0.02-0.05c-0.11-0.5-0.2-1-0.27-1.5
					c-0.03-0.17-0.06-0.34-0.07-0.5c-0.14-1-0.19-2.01-0.2-3.01c0.01-0.57,0.04-1.13,0.07-1.69c1.26,1.33,2.95,2.43,4.5,3.32
					c1.77,0.99,3.78,1.87,5.78,1.69c2.11-0.17,3.72-1.49,5.74-1.87c2.13-0.37,4.43,0.81,5.92,2.38c1.3,1.37,1.95,3.04,3.74,3.92
					c2,0.98,4.21,1,6.32,1.2C1960.67,1435.79,1960.69,1435.79,1960.71,1435.79z"/>
				<path class="st16" d="M1916.94,1384.27c0,0,9.57-0.16,10.44-1.51c0.87-1.35-0.72-2.82-0.72-2.82
					S1917.75,1381.48,1916.94,1384.27z"/>
			</g>
		</g>
		<path class="st7" d="M1967,1358.71c0,0,28.96,31.09,44.89,26.49c15.93-4.6,237.51-227.67,233.86-395.54
			c-2.71-124.58-71.37-143.03-131.38-54.74C2054.37,1023.21,1967,1358.71,1967,1358.71z"/>
		<path class="st7" d="M1903.2,570.06c0,0-3.48,74.31,30.55,104.03c34.03,29.71,120.33,375.99,193.4,344.77
			c73.07-31.22,145.71-34.02,107.66-116.78C2196.75,819.31,2023.12,555.87,1903.2,570.06z"/>
	</g>
</g>
</svg>
